# xmcd CD database file
#
# Track frame offsets:
#	150
#	19127
#	36099
#	61959
#	82097
#
# Disc length: 1355 seconds
#
# Revision: 0
# Processed by: cddbd v1.5.2PL0 Copyright (c) Steve Scherf et al.
# Submitted via: CDex 1.70beta2
#
DISCID=39054905
DTITLE=Walt Carroll and Clever Blue - This Old House
DYEAR=2011
DGENRE=Blues
TTITLE0=This Old House
TTITLE1=A Little Bit Of Justice
TTITLE2=Feels Like Rain - In Memory Of Ed Terry
TTITLE3=God Save Robert Johnson
TTITLE4=Going Down To Austin
EXTD=YEAR: 2011
EXTT0=
EXTT1=
EXTT2=
EXTT3=
EXTT4=
PLAYORDER=
